<mxfile host="app.diagrams.net" modified="2023-10-11T21:04:55.703Z" agent="Mozilla/5.0 (X11; Linux x86_64) AppleWebKit/537.36 (KHTML, like Gecko) Chrome/117.0.0.0 Safari/537.36" etag="yLhdx9_P6jTz9lw2GyZ4" version="22.0.4" type="github">
  <diagram id="C5RBs43oDa-KdzZeNtuy" name="Page-1">
    <mxGraphModel dx="880" dy="453" grid="1" gridSize="10" guides="1" tooltips="1" connect="1" arrows="1" fold="1" page="1" pageScale="1" pageWidth="827" pageHeight="1169" math="0" shadow="0">
      <root>
        <mxCell id="WIyWlLk6GJQsqaUBKTNV-0" />
        <mxCell id="WIyWlLk6GJQsqaUBKTNV-1" parent="WIyWlLk6GJQsqaUBKTNV-0" />
        <mxCell id="dX04V7mZqAI7vEYGQD8L-40" value="&amp;lt;&amp;lt;keyword&amp;gt;&amp;gt;&lt;br&gt;&lt;b&gt;Classifier1&lt;/b&gt;&lt;br&gt;{abstract}" style="swimlane;fontStyle=0;align=center;verticalAlign=top;childLayout=stackLayout;horizontal=1;startSize=55;horizontalStack=0;resizeParent=1;resizeParentMax=0;resizeLast=0;collapsible=0;marginBottom=0;html=1;whiteSpace=wrap;" vertex="1" parent="WIyWlLk6GJQsqaUBKTNV-1">
          <mxGeometry x="320" y="402" width="160" height="183" as="geometry" />
        </mxCell>
        <mxCell id="dX04V7mZqAI7vEYGQD8L-41" value="attributes" style="text;html=1;strokeColor=none;fillColor=none;align=center;verticalAlign=middle;spacingLeft=4;spacingRight=4;overflow=hidden;rotatable=0;points=[[0,0.5],[1,0.5]];portConstraint=eastwest;whiteSpace=wrap;" vertex="1" parent="dX04V7mZqAI7vEYGQD8L-40">
          <mxGeometry y="55" width="160" height="20" as="geometry" />
        </mxCell>
        <mxCell id="dX04V7mZqAI7vEYGQD8L-42" value="attribute1" style="text;html=1;strokeColor=none;fillColor=none;align=left;verticalAlign=middle;spacingLeft=4;spacingRight=4;overflow=hidden;rotatable=0;points=[[0,0.5],[1,0.5]];portConstraint=eastwest;whiteSpace=wrap;" vertex="1" parent="dX04V7mZqAI7vEYGQD8L-40">
          <mxGeometry y="75" width="160" height="20" as="geometry" />
        </mxCell>
        <mxCell id="dX04V7mZqAI7vEYGQD8L-43" value="inherited attribute2" style="text;html=1;strokeColor=none;fillColor=none;align=left;verticalAlign=middle;spacingLeft=4;spacingRight=4;overflow=hidden;rotatable=0;points=[[0,0.5],[1,0.5]];portConstraint=eastwest;fontColor=#808080;whiteSpace=wrap;" vertex="1" parent="dX04V7mZqAI7vEYGQD8L-40">
          <mxGeometry y="95" width="160" height="20" as="geometry" />
        </mxCell>
        <mxCell id="dX04V7mZqAI7vEYGQD8L-44" value="..." style="text;html=1;strokeColor=none;fillColor=none;align=left;verticalAlign=middle;spacingLeft=4;spacingRight=4;overflow=hidden;rotatable=0;points=[[0,0.5],[1,0.5]];portConstraint=eastwest;whiteSpace=wrap;" vertex="1" parent="dX04V7mZqAI7vEYGQD8L-40">
          <mxGeometry y="115" width="160" height="20" as="geometry" />
        </mxCell>
        <mxCell id="dX04V7mZqAI7vEYGQD8L-45" value="" style="line;strokeWidth=1;fillColor=none;align=left;verticalAlign=middle;spacingTop=-1;spacingLeft=3;spacingRight=3;rotatable=0;labelPosition=right;points=[];portConstraint=eastwest;" vertex="1" parent="dX04V7mZqAI7vEYGQD8L-40">
          <mxGeometry y="135" width="160" height="8" as="geometry" />
        </mxCell>
        <mxCell id="dX04V7mZqAI7vEYGQD8L-46" value="operations" style="text;html=1;strokeColor=none;fillColor=none;align=center;verticalAlign=middle;spacingLeft=4;spacingRight=4;overflow=hidden;rotatable=0;points=[[0,0.5],[1,0.5]];portConstraint=eastwest;whiteSpace=wrap;" vertex="1" parent="dX04V7mZqAI7vEYGQD8L-40">
          <mxGeometry y="143" width="160" height="20" as="geometry" />
        </mxCell>
        <mxCell id="dX04V7mZqAI7vEYGQD8L-47" value="operation1" style="text;html=1;strokeColor=none;fillColor=none;align=left;verticalAlign=middle;spacingLeft=4;spacingRight=4;overflow=hidden;rotatable=0;points=[[0,0.5],[1,0.5]];portConstraint=eastwest;whiteSpace=wrap;" vertex="1" parent="dX04V7mZqAI7vEYGQD8L-40">
          <mxGeometry y="163" width="160" height="20" as="geometry" />
        </mxCell>
        <mxCell id="dX04V7mZqAI7vEYGQD8L-64" value="&amp;lt;&amp;lt;keyword&amp;gt;&amp;gt;&lt;br&gt;&lt;b&gt;Classifier1&lt;/b&gt;&lt;br&gt;{abstract}" style="swimlane;fontStyle=0;align=center;verticalAlign=top;childLayout=stackLayout;horizontal=1;startSize=55;horizontalStack=0;resizeParent=1;resizeParentMax=0;resizeLast=0;collapsible=0;marginBottom=0;html=1;whiteSpace=wrap;" vertex="1" parent="WIyWlLk6GJQsqaUBKTNV-1">
          <mxGeometry x="40" y="140" width="160" height="183" as="geometry" />
        </mxCell>
        <mxCell id="dX04V7mZqAI7vEYGQD8L-65" value="attributes" style="text;html=1;strokeColor=none;fillColor=none;align=center;verticalAlign=middle;spacingLeft=4;spacingRight=4;overflow=hidden;rotatable=0;points=[[0,0.5],[1,0.5]];portConstraint=eastwest;whiteSpace=wrap;" vertex="1" parent="dX04V7mZqAI7vEYGQD8L-64">
          <mxGeometry y="55" width="160" height="20" as="geometry" />
        </mxCell>
        <mxCell id="dX04V7mZqAI7vEYGQD8L-66" value="attribute1" style="text;html=1;strokeColor=none;fillColor=none;align=left;verticalAlign=middle;spacingLeft=4;spacingRight=4;overflow=hidden;rotatable=0;points=[[0,0.5],[1,0.5]];portConstraint=eastwest;whiteSpace=wrap;" vertex="1" parent="dX04V7mZqAI7vEYGQD8L-64">
          <mxGeometry y="75" width="160" height="20" as="geometry" />
        </mxCell>
        <mxCell id="dX04V7mZqAI7vEYGQD8L-67" value="inherited attribute2" style="text;html=1;strokeColor=none;fillColor=none;align=left;verticalAlign=middle;spacingLeft=4;spacingRight=4;overflow=hidden;rotatable=0;points=[[0,0.5],[1,0.5]];portConstraint=eastwest;fontColor=#808080;whiteSpace=wrap;" vertex="1" parent="dX04V7mZqAI7vEYGQD8L-64">
          <mxGeometry y="95" width="160" height="20" as="geometry" />
        </mxCell>
        <mxCell id="dX04V7mZqAI7vEYGQD8L-68" value="..." style="text;html=1;strokeColor=none;fillColor=none;align=left;verticalAlign=middle;spacingLeft=4;spacingRight=4;overflow=hidden;rotatable=0;points=[[0,0.5],[1,0.5]];portConstraint=eastwest;whiteSpace=wrap;" vertex="1" parent="dX04V7mZqAI7vEYGQD8L-64">
          <mxGeometry y="115" width="160" height="20" as="geometry" />
        </mxCell>
        <mxCell id="dX04V7mZqAI7vEYGQD8L-69" value="" style="line;strokeWidth=1;fillColor=none;align=left;verticalAlign=middle;spacingTop=-1;spacingLeft=3;spacingRight=3;rotatable=0;labelPosition=right;points=[];portConstraint=eastwest;" vertex="1" parent="dX04V7mZqAI7vEYGQD8L-64">
          <mxGeometry y="135" width="160" height="8" as="geometry" />
        </mxCell>
        <mxCell id="dX04V7mZqAI7vEYGQD8L-70" value="operations" style="text;html=1;strokeColor=none;fillColor=none;align=center;verticalAlign=middle;spacingLeft=4;spacingRight=4;overflow=hidden;rotatable=0;points=[[0,0.5],[1,0.5]];portConstraint=eastwest;whiteSpace=wrap;" vertex="1" parent="dX04V7mZqAI7vEYGQD8L-64">
          <mxGeometry y="143" width="160" height="20" as="geometry" />
        </mxCell>
        <mxCell id="dX04V7mZqAI7vEYGQD8L-71" value="operation1" style="text;html=1;strokeColor=none;fillColor=none;align=left;verticalAlign=middle;spacingLeft=4;spacingRight=4;overflow=hidden;rotatable=0;points=[[0,0.5],[1,0.5]];portConstraint=eastwest;whiteSpace=wrap;" vertex="1" parent="dX04V7mZqAI7vEYGQD8L-64">
          <mxGeometry y="163" width="160" height="20" as="geometry" />
        </mxCell>
        <mxCell id="dX04V7mZqAI7vEYGQD8L-72" value="&amp;lt;&amp;lt;keyword&amp;gt;&amp;gt;&lt;br&gt;&lt;b&gt;Classifier1&lt;/b&gt;&lt;br&gt;{abstract}" style="swimlane;fontStyle=0;align=center;verticalAlign=top;childLayout=stackLayout;horizontal=1;startSize=55;horizontalStack=0;resizeParent=1;resizeParentMax=0;resizeLast=0;collapsible=0;marginBottom=0;html=1;whiteSpace=wrap;" vertex="1" parent="WIyWlLk6GJQsqaUBKTNV-1">
          <mxGeometry x="320" y="140" width="160" height="183" as="geometry" />
        </mxCell>
        <mxCell id="dX04V7mZqAI7vEYGQD8L-73" value="attributes" style="text;html=1;strokeColor=none;fillColor=none;align=center;verticalAlign=middle;spacingLeft=4;spacingRight=4;overflow=hidden;rotatable=0;points=[[0,0.5],[1,0.5]];portConstraint=eastwest;whiteSpace=wrap;" vertex="1" parent="dX04V7mZqAI7vEYGQD8L-72">
          <mxGeometry y="55" width="160" height="20" as="geometry" />
        </mxCell>
        <mxCell id="dX04V7mZqAI7vEYGQD8L-74" value="attribute1" style="text;html=1;strokeColor=none;fillColor=none;align=left;verticalAlign=middle;spacingLeft=4;spacingRight=4;overflow=hidden;rotatable=0;points=[[0,0.5],[1,0.5]];portConstraint=eastwest;whiteSpace=wrap;" vertex="1" parent="dX04V7mZqAI7vEYGQD8L-72">
          <mxGeometry y="75" width="160" height="20" as="geometry" />
        </mxCell>
        <mxCell id="dX04V7mZqAI7vEYGQD8L-75" value="inherited attribute2" style="text;html=1;strokeColor=none;fillColor=none;align=left;verticalAlign=middle;spacingLeft=4;spacingRight=4;overflow=hidden;rotatable=0;points=[[0,0.5],[1,0.5]];portConstraint=eastwest;fontColor=#808080;whiteSpace=wrap;" vertex="1" parent="dX04V7mZqAI7vEYGQD8L-72">
          <mxGeometry y="95" width="160" height="20" as="geometry" />
        </mxCell>
        <mxCell id="dX04V7mZqAI7vEYGQD8L-76" value="..." style="text;html=1;strokeColor=none;fillColor=none;align=left;verticalAlign=middle;spacingLeft=4;spacingRight=4;overflow=hidden;rotatable=0;points=[[0,0.5],[1,0.5]];portConstraint=eastwest;whiteSpace=wrap;" vertex="1" parent="dX04V7mZqAI7vEYGQD8L-72">
          <mxGeometry y="115" width="160" height="20" as="geometry" />
        </mxCell>
        <mxCell id="dX04V7mZqAI7vEYGQD8L-77" value="" style="line;strokeWidth=1;fillColor=none;align=left;verticalAlign=middle;spacingTop=-1;spacingLeft=3;spacingRight=3;rotatable=0;labelPosition=right;points=[];portConstraint=eastwest;" vertex="1" parent="dX04V7mZqAI7vEYGQD8L-72">
          <mxGeometry y="135" width="160" height="8" as="geometry" />
        </mxCell>
        <mxCell id="dX04V7mZqAI7vEYGQD8L-78" value="operations" style="text;html=1;strokeColor=none;fillColor=none;align=center;verticalAlign=middle;spacingLeft=4;spacingRight=4;overflow=hidden;rotatable=0;points=[[0,0.5],[1,0.5]];portConstraint=eastwest;whiteSpace=wrap;" vertex="1" parent="dX04V7mZqAI7vEYGQD8L-72">
          <mxGeometry y="143" width="160" height="20" as="geometry" />
        </mxCell>
        <mxCell id="dX04V7mZqAI7vEYGQD8L-79" value="operation1" style="text;html=1;strokeColor=none;fillColor=none;align=left;verticalAlign=middle;spacingLeft=4;spacingRight=4;overflow=hidden;rotatable=0;points=[[0,0.5],[1,0.5]];portConstraint=eastwest;whiteSpace=wrap;" vertex="1" parent="dX04V7mZqAI7vEYGQD8L-72">
          <mxGeometry y="163" width="160" height="20" as="geometry" />
        </mxCell>
        <mxCell id="dX04V7mZqAI7vEYGQD8L-80" value="&amp;lt;&amp;lt;keyword&amp;gt;&amp;gt;&lt;br&gt;&lt;b&gt;Classifier1&lt;/b&gt;&lt;br&gt;{abstract}" style="swimlane;fontStyle=0;align=center;verticalAlign=top;childLayout=stackLayout;horizontal=1;startSize=55;horizontalStack=0;resizeParent=1;resizeParentMax=0;resizeLast=0;collapsible=0;marginBottom=0;html=1;whiteSpace=wrap;" vertex="1" parent="WIyWlLk6GJQsqaUBKTNV-1">
          <mxGeometry x="600" y="140" width="160" height="183" as="geometry" />
        </mxCell>
        <mxCell id="dX04V7mZqAI7vEYGQD8L-81" value="attributes" style="text;html=1;strokeColor=none;fillColor=none;align=center;verticalAlign=middle;spacingLeft=4;spacingRight=4;overflow=hidden;rotatable=0;points=[[0,0.5],[1,0.5]];portConstraint=eastwest;whiteSpace=wrap;" vertex="1" parent="dX04V7mZqAI7vEYGQD8L-80">
          <mxGeometry y="55" width="160" height="20" as="geometry" />
        </mxCell>
        <mxCell id="dX04V7mZqAI7vEYGQD8L-82" value="attribute1" style="text;html=1;strokeColor=none;fillColor=none;align=left;verticalAlign=middle;spacingLeft=4;spacingRight=4;overflow=hidden;rotatable=0;points=[[0,0.5],[1,0.5]];portConstraint=eastwest;whiteSpace=wrap;" vertex="1" parent="dX04V7mZqAI7vEYGQD8L-80">
          <mxGeometry y="75" width="160" height="20" as="geometry" />
        </mxCell>
        <mxCell id="dX04V7mZqAI7vEYGQD8L-83" value="inherited attribute2" style="text;html=1;strokeColor=none;fillColor=none;align=left;verticalAlign=middle;spacingLeft=4;spacingRight=4;overflow=hidden;rotatable=0;points=[[0,0.5],[1,0.5]];portConstraint=eastwest;fontColor=#808080;whiteSpace=wrap;" vertex="1" parent="dX04V7mZqAI7vEYGQD8L-80">
          <mxGeometry y="95" width="160" height="20" as="geometry" />
        </mxCell>
        <mxCell id="dX04V7mZqAI7vEYGQD8L-84" value="..." style="text;html=1;strokeColor=none;fillColor=none;align=left;verticalAlign=middle;spacingLeft=4;spacingRight=4;overflow=hidden;rotatable=0;points=[[0,0.5],[1,0.5]];portConstraint=eastwest;whiteSpace=wrap;" vertex="1" parent="dX04V7mZqAI7vEYGQD8L-80">
          <mxGeometry y="115" width="160" height="20" as="geometry" />
        </mxCell>
        <mxCell id="dX04V7mZqAI7vEYGQD8L-85" value="" style="line;strokeWidth=1;fillColor=none;align=left;verticalAlign=middle;spacingTop=-1;spacingLeft=3;spacingRight=3;rotatable=0;labelPosition=right;points=[];portConstraint=eastwest;" vertex="1" parent="dX04V7mZqAI7vEYGQD8L-80">
          <mxGeometry y="135" width="160" height="8" as="geometry" />
        </mxCell>
        <mxCell id="dX04V7mZqAI7vEYGQD8L-86" value="operations" style="text;html=1;strokeColor=none;fillColor=none;align=center;verticalAlign=middle;spacingLeft=4;spacingRight=4;overflow=hidden;rotatable=0;points=[[0,0.5],[1,0.5]];portConstraint=eastwest;whiteSpace=wrap;" vertex="1" parent="dX04V7mZqAI7vEYGQD8L-80">
          <mxGeometry y="143" width="160" height="20" as="geometry" />
        </mxCell>
        <mxCell id="dX04V7mZqAI7vEYGQD8L-87" value="operation1" style="text;html=1;strokeColor=none;fillColor=none;align=left;verticalAlign=middle;spacingLeft=4;spacingRight=4;overflow=hidden;rotatable=0;points=[[0,0.5],[1,0.5]];portConstraint=eastwest;whiteSpace=wrap;" vertex="1" parent="dX04V7mZqAI7vEYGQD8L-80">
          <mxGeometry y="163" width="160" height="20" as="geometry" />
        </mxCell>
      </root>
    </mxGraphModel>
  </diagram>
</mxfile>
